<?xml version="1.0" standalone="no"?>
<!DOCTYPE svg PUBLIC "-//W3C//DTD SVG 20010904//EN"
 "http://www.w3.org/TR/2001/REC-SVG-20010904/DTD/svg10.dtd">
<svg version="1.0" xmlns="http://www.w3.org/2000/svg"
 width="1000.000000pt" height="1000.000000pt" viewBox="0 0 1000.000000 1000.000000"
 preserveAspectRatio="xMidYMid meet">

<g transform="translate(0.000000,1000.000000) scale(0.100000,-0.100000)"
fill="#000000" stroke="none">
<path d="M1635 9925 c-22 -8 -41 -15 -42 -15 -11 -1 -42 -86 -48 -130 -19
-157 79 -527 216 -819 36 -76 49 -116 49 -149 0 -131 106 -355 197 -415 24
-16 30 -32 44 -102 20 -103 81 -231 143 -301 25 -28 74 -71 110 -94 64 -42 66
-45 66 -85 0 -57 33 -182 64 -244 14 -28 26 -53 26 -56 0 -3 -42 -5 -92 -5
-234 0 -472 113 -676 321 -95 97 -158 183 -180 243 -34 96 -91 128 -162 91
-61 -32 -168 -258 -235 -495 -56 -201 -76 -351 -76 -570 0 -543 221 -939 642
-1150 56 -27 132 -59 170 -71 38 -11 69 -24 69 -28 0 -16 -253 -271 -374 -378
-129 -113 -236 -189 -470 -334 -136 -85 -265 -204 -309 -286 -39 -73 -60 -182
-52 -263 9 -83 47 -214 84 -288 150 -300 224 -416 335 -530 130 -133 249 -204
418 -246 239 -61 468 -39 818 78 225 75 396 82 845 36 382 -39 712 -43 923
-11 l52 8 -1 -46 c-1 -25 -4 -83 -7 -128 l-7 -82 -175 -86 c-812 -401 -1277
-897 -1374 -1464 -28 -167 -17 -396 28 -556 18 -66 90 -236 129 -305 245 -440
707 -786 1188 -891 204 -45 470 -26 534 38 14 14 25 29 25 33 0 19 321 262
650 492 674 471 1447 883 2159 1149 415 156 905 282 1190 306 55 5 80 12 100
29 30 25 155 245 227 399 455 975 549 2279 248 3444 -47 183 -170 546 -239
711 -435 1032 -1147 1743 -2086 2083 -344 125 -595 178 -943 198 -664 39
-1344 -156 -2015 -579 -74 -46 -165 -107 -202 -133 -37 -27 -72 -49 -78 -49
-5 0 -15 9 -20 19 -20 36 -115 96 -195 123 -73 24 -81 30 -92 60 -57 165 -168
291 -282 320 -23 6 -45 15 -49 21 -3 6 -21 52 -38 103 -58 167 -149 283 -252
320 l-51 18 -26 80 c-34 100 -84 184 -142 235 -47 41 -135 81 -178 81 -18 0
-38 17 -74 64 -94 119 -268 249 -378 282 -58 17 -78 17 -129 -1z m283 -334
c89 -86 106 -116 104 -180 -3 -81 -29 -213 -56 -285 l-24 -61 -32 70 c-71 153
-159 457 -160 548 l0 38 60 -42 c33 -23 81 -62 108 -88z m358 -243 c36 -43 79
-139 93 -210 14 -66 5 -134 -36 -263 -42 -133 -145 -315 -178 -315 -17 0 -81
71 -103 115 -11 22 -25 67 -31 100 l-11 59 39 41 c79 81 148 248 173 419 6 47
15 86 19 86 4 0 20 -15 35 -32z m340 -400 c63 -76 109 -225 108 -358 -1 -80
-6 -110 -33 -190 -42 -123 -89 -207 -160 -282 l-57 -61 -41 21 c-81 42 -155
157 -170 263 -5 32 -1 39 36 68 96 76 206 280 250 462 14 60 29 109 33 109 3
0 19 -15 34 -32z m3525 -221 c547 -96 1038 -313 1460 -648 129 -102 378 -350
490 -489 541 -668 881 -1573 970 -2585 16 -180 16 -681 1 -855 -46 -505 -142
-933 -303 -1346 -41 -103 -214 -461 -241 -496 -9 -11 -41 -21 -98 -28 -276
-37 -720 -155 -1085 -290 -515 -189 -951 -394 -1460 -684 -88 -50 -163 -92
-167 -94 -13 -6 21 79 58 145 77 139 252 323 442 467 57 43 217 152 355 243
436 287 469 309 592 398 152 112 277 219 385 331 155 162 244 298 333 509 254
607 337 1195 251 1785 -77 532 -308 1037 -668 1466 -177 211 -473 473 -706
624 -88 57 -305 161 -415 200 -117 41 -326 95 -440 114 -116 20 -320 36 -450
36 l-102 0 -41 63 c-92 143 -262 311 -422 418 -102 69 -273 151 -401 194 -104
34 -306 75 -377 75 l-37 1 60 35 c233 137 600 287 864 354 284 71 447 90 761
85 207 -3 268 -7 391 -28z m-3102 -347 c42 -88 46 -102 49 -187 8 -192 -84
-474 -211 -648 -75 -103 -80 -104 -162 -13 -62 68 -111 173 -125 265 l-11 72
69 65 c79 75 148 173 199 282 35 77 83 245 83 292 l0 26 31 -30 c18 -16 52
-72 78 -124z m316 -262 c72 -63 135 -241 135 -382 0 -259 -119 -591 -268 -748
-20 -21 -42 -38 -50 -38 -22 0 -121 68 -168 117 -48 48 -87 117 -98 169 -7 29
-2 36 48 84 164 155 300 466 341 783 3 26 10 47 15 47 5 0 25 -14 45 -32z
m934 -93 c373 -97 675 -316 858 -625 28 -47 54 -92 59 -102 5 -9 52 -48 104
-88 52 -40 144 -120 204 -178 348 -342 571 -752 652 -1197 27 -150 25 -442 -4
-591 -115 -585 -534 -1094 -1257 -1526 -161 -96 -503 -273 -512 -264 -3 3 -1
51 3 107 l9 101 86 38 c302 130 543 345 743 664 69 110 84 153 67 195 -18 42
-44 62 -90 68 -35 5 -43 2 -67 -23 -14 -16 -49 -67 -76 -114 -147 -251 -358
-457 -577 -562 -99 -47 -245 -94 -361 -114 -152 -27 -546 -25 -840 5 -118 12
-307 25 -420 28 -256 7 -370 -8 -568 -73 -75 -25 -177 -54 -227 -65 -86 -18
-175 -25 -175 -14 0 3 11 22 23 43 59 93 92 250 65 302 -18 34 -80 63 -117 55
-45 -10 -79 -53 -91 -115 -15 -80 -46 -135 -114 -208 l-61 -64 -66 24 c-96 35
-151 71 -236 152 -92 86 -138 151 -236 326 -124 222 -165 351 -146 453 22 119
81 176 365 351 90 56 212 139 271 186 145 115 374 340 676 664 341 365 423
442 627 593 336 248 700 447 1008 554 64 22 127 49 139 61 37 35 29 77 -43
243 -167 385 -209 513 -202 617 8 107 62 130 283 124 110 -3 162 -10 244 -31z
m-2576 -473 c259 -205 548 -286 814 -227 l82 18 30 -26 c17 -14 35 -27 40 -29
5 -1 17 -36 25 -76 8 -41 26 -97 39 -125 33 -71 108 -168 162 -208 24 -19 45
-37 45 -40 0 -8 -22 -15 -110 -33 -292 -63 -627 7 -887 186 -158 108 -318 295
-393 461 -34 76 -74 209 -84 282 l-8 50 84 -86 c46 -47 118 -113 161 -147z
m-327 -17 c78 -256 272 -512 507 -669 224 -149 535 -239 766 -222 47 4 83 5
80 3 -2 -3 -58 -49 -124 -104 -125 -105 -312 -290 -434 -430 -81 -94 -79 -93
-194 -64 -214 55 -405 177 -523 334 -143 190 -208 419 -207 727 1 185 19 326
65 494 22 80 22 80 31 46 5 -19 20 -71 33 -115z m2342 -115 c64 -150 75 -180
71 -184 -5 -4 -247 -106 -253 -106 -2 0 9 24 24 53 39 71 78 190 92 281 6 42
13 75 14 73 1 -1 24 -54 52 -117z m2044 -50 c448 -58 797 -205 1143 -484 600
-484 961 -1098 1080 -1841 22 -137 31 -555 15 -711 -32 -323 -111 -625 -247
-952 -102 -248 -187 -377 -357 -548 -169 -169 -354 -303 -896 -650 -259 -167
-440 -304 -584 -444 -197 -192 -316 -375 -365 -560 l-23 -86 -71 -44 c-251
-154 -696 -463 -963 -668 -78 -60 -153 -112 -167 -116 -21 -5 -38 8 -128 102
-168 173 -273 339 -321 508 -28 101 -30 273 -3 379 114 450 617 925 1590 1503
121 72 267 159 323 194 619 377 989 956 1093 1708 19 139 17 505 -5 660 -97
712 -439 1293 -961 1636 -32 21 -75 57 -94 79 -87 98 -203 213 -284 281 l-88
74 80 0 c44 0 149 -9 233 -20z m533 -955 c238 -316 391 -705 451 -1145 36
-261 15 -620 -51 -872 -153 -590 -494 -1036 -1030 -1351 -347 -203 -507 -301
-675 -412 -419 -278 -711 -520 -917 -759 -175 -203 -273 -378 -330 -586 -26
-98 -24 -338 5 -442 45 -163 157 -354 293 -502 l73 -79 -49 8 c-292 43 -609
210 -836 438 -193 195 -331 432 -391 677 -30 121 -30 330 0 452 103 416 433
787 996 1117 102 60 351 186 446 226 141 59 553 266 695 350 601 352 1012 756
1239 1218 127 257 182 472 192 747 13 341 -52 644 -207 970 l-60 125 37 -35
c20 -19 73 -84 119 -145z"/>
<path d="M4287 7658 c-22 -18 -36 -59 -27 -83 4 -11 31 -36 59 -55 56 -38 58
-42 36 -60 -22 -18 -19 -115 4 -167 11 -23 30 -49 44 -58 59 -39 143 -27 197
27 26 26 30 37 30 86 0 75 -27 128 -103 199 -64 59 -169 123 -204 123 -11 0
-27 -6 -36 -12z m217 -289 c-10 -16 -24 -9 -24 12 0 18 2 19 15 9 8 -7 12 -16
9 -21z"/>
<path d="M3296 6126 c-25 -24 -26 -29 -19 -100 7 -88 1 -101 -59 -110 -62 -10
-165 -54 -229 -97 -198 -134 -270 -399 -109 -399 59 0 76 13 111 83 49 98 83
133 162 172 122 60 274 58 471 -6 56 -19 100 -28 116 -24 30 8 80 53 80 73 0
7 12 29 26 47 45 59 77 190 60 243 -8 24 -42 42 -77 42 -31 0 -59 -36 -59 -75
0 -43 -28 -115 -45 -115 -7 0 -29 7 -50 16 -31 12 -36 19 -31 37 3 12 9 52 12
88 6 59 4 69 -15 88 -40 40 -111 13 -111 -44 0 -13 -5 -47 -11 -75 -10 -48
-12 -50 -44 -50 -62 0 -65 4 -65 95 0 92 -13 119 -62 131 -21 4 -33 0 -52 -20z"/>
<path d="M1247 4679 c-112 -59 -97 -203 30 -293 24 -16 43 -32 43 -35 0 -3 -7
-28 -15 -55 -18 -59 -6 -93 40 -115 25 -12 32 -12 54 0 78 44 130 309 82 414
-44 96 -144 132 -234 84z m83 -140 c0 -10 -4 -19 -9 -19 -12 0 -23 29 -15 41
8 14 24 0 24 -22z"/>
</g>
</svg>
